{
  "accessors": [
    {
      "bufferView": 2,
      "componentType": 5126,
      "count": 867,
      "max": [
        51.87345886230469,
        158.98388671875,
        43.24980926513672
      ],
      "min": [
        -54.783233642578125,
        -44.60176467895508,
        -100.52840423583984
      ],
      "type": "VEC3"
    },
    {
      "bufferView": 2,
      "byteOffset": 10404,
      "componentType": 5126,
      "count": 867,
      "max": [
        0.9993342161178589,
        0.9993813633918762,
        0.9997780919075012
      ],
      "min": [
        -0.9983919262886047,
        -0.9958295822143555,
        -0.9987635016441345
      ],
      "type": "VEC3"
    },
    {
      "bufferView": 1,
      "componentType": 5126,
      "count": 867,
      "max": [
        0.7517291903495789,
        0.6466479301452637
      ],
      "min": [
        0.0,
        0.0
      ],
      "type": "VEC2"
    },
    {
      "bufferView": 0,
      "componentType": 5125,
      "count": 4080,
      "type": "SCALAR"
    },
    {
      "bufferView": 2,
      "byteOffset": 20808,
      "componentType": 5126,
      "count": 360,
      "max": [
        73.5835189819336,
        93.48728942871094,
        62.71940994262695
      ],
      "min": [
        29.934581756591797,
        56.44534683227539,
        46.71940612792969
      ],
      "type": "VEC3"
    },
    {
      "bufferView": 2,
      "byteOffset": 25128,
      "componentType": 5126,
      "count": 360,
      "max": [
        0.9996127486228943,
        0.9997104406356812,
        0.9842021465301514
      ],
      "min": [
        -0.9996126890182495,
        -0.9997104406356812,
        -0.9842024445533752
      ],
      "type": "VEC3"
    },
    {
      "bufferView": 1,
      "byteOffset": 6936,
      "componentType": 5126,
      "count": 360,
      "max": [
        0.7004994750022888,
        0.6346476078033447
      ],
      "min": [
        0.5122801065444946,
        0.0
      ],
      "type": "VEC2"
    },
    {
      "bufferView": 0,
      "byteOffset": 16320,
      "componentType": 5125,
      "count": 1440,
      "type": "SCALAR"
    },
    {
      "bufferView": 2,
      "byteOffset": 29448,
      "componentType": 5126,
      "count": 572,
      "max": [
        73.04046630859375,
        65.24201965332031,
        63.098968505859375
      ],
      "min": [
        54.214778900146484,
        39.799041748046875,
        51.0173225402832
      ],
      "type": "VEC3"
    },
    {
      "bufferView": 2,
      "byteOffset": 36312,
      "componentType": 5126,
      "count": 572,
      "max": [
        0.9792243242263794,
        0.9645249843597412,
        1.0
      ],
      "min": [
        -0.9792109727859497,
        -0.9642912745475769,
        -1.0
      ],
      "type": "VEC3"
    },
    {
      "bufferView": 1,
      "byteOffset": 9816,
      "componentType": 5126,
      "count": 572,
      "max": [
        0.7891165614128113,
        0.3422148525714874
      ],
      "min": [
        0.7375598549842834,
        0.04856765270233154
      ],
      "type": "VEC2"
    },
    {
      "bufferView": 0,
      "byteOffset": 22080,
      "componentType": 5125,
      "count": 1680,
      "type": "SCALAR"
    },
    {
      "bufferView": 2,
      "byteOffset": 43176,
      "componentType": 5126,
      "count": 1474,
      "max": [
        70.0833511352539,
        103.651611328125,
        92.80764770507813
      ],
      "min": [
        26.25220489501953,
        63.33503341674805,
        42.93808364868164
      ],
      "type": "VEC3"
    },
    {
      "bufferView": 2,
      "byteOffset": 60864,
      "componentType": 5126,
      "count": 1474,
      "max": [
        0.9988502860069275,
        0.9988461136817932,
        1.0
      ],
      "min": [
        -0.9993816018104553,
        -0.9967235922813416,
        -1.0
      ],
      "type": "VEC3"
    },
    {
      "bufferView": 1,
      "byteOffset": 14392,
      "componentType": 5126,
      "count": 1474,
      "max": [
        0.7648345828056335,
        0.7899910807609558
      ],
      "min": [
        0.0,
        0.0
      ],
      "type": "VEC2"
    },
    {
      "bufferView": 0,
      "byteOffset": 28800,
      "componentType": 5125,
      "count": 7560,
      "type": "SCALAR"
    },
    {
      "bufferView": 2,
      "byteOffset": 78552,
      "componentType": 5126,
      "count": 360,
      "max": [
        73.5835189819336,
        93.48728942871094,
        62.71940612792969
      ],
      "min": [
        29.934581756591797,
        56.445350646972656,
        46.71940612792969
      ],
      "type": "VEC3"
    },
    {
      "bufferView": 2,
      "byteOffset": 82872,
      "componentType": 5126,
      "count": 360,
      "max": [
        0.9996127486228943,
        0.9997104406356812,
        0.9842022061347961
      ],
      "min": [
        -0.9996126890182495,
        -0.9997104406356812,
        -0.9842025637626648
      ],
      "type": "VEC3"
    },
    {
      "bufferView": 1,
      "byteOffset": 26184,
      "componentType": 5126,
      "count": 360,
      "max": [
        0.7498759031295776,
        0.6938302516937256
      ],
      "min": [
        0.0,
        0.3963184654712677
      ],
      "type": "VEC2"
    },
    {
      "bufferView": 0,
      "byteOffset": 59040,
      "componentType": 5125,
      "count": 1440,
      "type": "SCALAR"
    },
    {
      "bufferView": 2,
      "byteOffset": 87192,
      "componentType": 5126,
      "count": 356,
      "max": [
        73.04047393798828,
        53.58710479736328,
        63.098968505859375
      ],
      "min": [
        63.46677780151367,
        39.799041748046875,
        51.0173225402832
      ],
      "type": "VEC3"
    },
    {
      "bufferView": 2,
      "byteOffset": 91464,
      "componentType": 5126,
      "count": 356,
      "max": [
        0.9792233109474182,
        0.964525043964386,
        0.9993101358413696
      ],
      "min": [
        -0.9792109131813049,
        -0.9642916321754456,
        -0.9992970824241638
      ],
      "type": "VEC3"
    },
    {
      "bufferView": 1,
      "byteOffset": 29064,
      "componentType": 5126,
      "count": 356,
      "max": [
        0.7489982843399048,
        0.06382787227630615
      ],
      "min": [
        0.697441577911377,
        0.0
      ],
      "type": "VEC2"
    },
    {
      "bufferView": 0,
      "byteOffset": 64800,
      "componentType": 5125,
      "count": 1080,
      "type": "SCALAR"
    },
    {
      "bufferView": 2,
      "byteOffset": 95736,
      "componentType": 5126,
      "count": 216,
      "max": [
        71.45433044433594,
        65.24201965332031,
        58.83697509765625
      ],
      "min": [
        54.21478271484375,
        46.78941345214844,
        55.301124572753906
      ],
      "type": "VEC3"
    },
    {
      "bufferView": 2,
      "byteOffset": 98328,
      "componentType": 5126,
      "count": 216,
      "max": [
        0.9552351832389832,
        0.9580354690551758,
        1.0
      ],
      "min": [
        -0.9590046405792236,
        -0.9487192034721375,
        -1.0
      ],
      "type": "VEC3"
    },
    {
      "bufferView": 1,
      "byteOffset": 31912,
      "componentType": 5126,
      "count": 216,
      "max": [
        0.78885418176651,
        0.2558414936065674
      ],
      "min": [
        0.7622480988502502,
        0.16791164875030518
      ],
      "type": "VEC2"
    },
    {
      "bufferView": 0,
      "byteOffset": 69120,
      "componentType": 5125,
      "count": 600,
      "type": "SCALAR"
    },
    {
      "bufferView": 2,
      "byteOffset": 100920,
      "componentType": 5126,
      "count": 1474,
      "max": [
        -46.66463851928711,
        97.97272491455078,
        96.10102844238281
      ],
      "min": [
        -90.46822357177734,
        63.57542037963867,
        43.74599838256836
      ],
      "type": "VEC3"
    },
    {
      "bufferView": 2,
      "byteOffset": 118608,
      "componentType": 5126,
      "count": 1474,
      "max": [
        0.9996498823165894,
        0.9997795820236206,
        0.9999856352806091
      ],
      "min": [
        -0.9997919797897339,
        -0.9995545744895935,
        -0.9970216155052185
      ],
      "type": "VEC3"
    },
    {
      "bufferView": 1,
      "byteOffset": 33640,
      "componentType": 5126,
      "count": 1474,
      "max": [
        0.7711084485054016,
        0.7771644592285156
      ],
      "min": [
        0.0,
        0.0
      ],
      "type": "VEC2"
    },
    {
      "bufferView": 0,
      "byteOffset": 71520,
      "componentType": 5125,
      "count": 7560,
      "type": "SCALAR"
    },
    {
      "bufferView": 2,
      "byteOffset": 136296,
      "componentType": 5126,
      "count": 60,
      "max": [
        -104.33675384521484,
        114.38179779052734,
        57.783775329589844
      ],
      "min": [
        -119.01200103759766,
        99.70655059814453,
        52.84657287597656
      ],
      "type": "VEC3"
    },
    {
      "bufferView": 2,
      "byteOffset": 137016,
      "componentType": 5126,
      "count": 60,
      "max": [
        0.6785991787910461,
        0.8628591299057007,
        1.0
      ],
      "min": [
        -0.6786007285118103,
        -0.8628631234169006,
        -0.6785996556282043
      ],
      "type": "VEC3"
    },
    {
      "bufferView": 1,
      "byteOffset": 45432,
      "componentType": 5126,
      "count": 60,
      "max": [
        0.7888401746749878,
        0.0967642068862915
      ],
      "min": [
        0.7195491194725037,
        0.00829310156404972
      ],
      "type": "VEC2"
    },
    {
      "bufferView": 0,
      "byteOffset": 101760,
      "componentType": 5125,
      "count": 78,
      "type": "SCALAR"
    },
    {
      "bufferView": 2,
      "byteOffset": 137736,
      "componentType": 5126,
      "count": 60,
      "max": [
        58.862831115722656,
        176.24029541015625,
        54.44890594482422
      ],
      "min": [
        44.187583923339844,
        161.5650634765625,
        49.51170349121094
      ],
      "type": "VEC3"
    },
    {
      "bufferView": 2,
      "byteOffset": 138456,
      "componentType": 5126,
      "count": 60,
      "max": [
        0.6785992980003357,
        0.8628602623939514,
        1.0
      ],
      "min": [
        -0.6785998344421387,
        -0.8628602623939514,
        -0.6786009073257446
      ],
      "type": "VEC3"
    },
    {
      "bufferView": 1,
      "byteOffset": 45912,
      "componentType": 5126,
      "count": 60,
      "max": [
        0.7888401746749878,
        0.0967642068862915
      ],
      "min": [
        0.7195491194725037,
        0.00829310156404972
      ],
      "type": "VEC2"
    },
    {
      "bufferView": 0,
      "byteOffset": 102072,
      "componentType": 5125,
      "count": 78,
      "type": "SCALAR"
    },
    {
      "bufferView": 2,
      "byteOffset": 139176,
      "componentType": 5126,
      "count": 60,
      "max": [
        73.87723541259766,
        110.30321502685547,
        -28.289005279541016
      ],
      "min": [
        59.201988220214844,
        95.62796783447266,
        -33.22620391845703
      ],
      "type": "VEC3"
    },
    {
      "bufferView": 2,
      "byteOffset": 139896,
      "componentType": 5126,
      "count": 60,
      "max": [
        0.6785992383956909,
        0.86285799741745,
        1.0
      ],
      "min": [
        -0.6785995960235596,
        -0.862861692905426,
        -0.6786000728607178
      ],
      "type": "VEC3"
    },
    {
      "bufferView": 1,
      "byteOffset": 46392,
      "componentType": 5126,
      "count": 60,
      "max": [
        0.7888401746749878,
        0.0967642068862915
      ],
      "min": [
        0.7195491194725037,
        0.00829310156404972
      ],
      "type": "VEC2"
    },
    {
      "bufferView": 0,
      "byteOffset": 102384,
      "componentType": 5125,
      "count": 78,
      "type": "SCALAR"
    },
    {
      "bufferView": 2,
      "byteOffset": 140616,
      "componentType": 5126,
      "count": 60,
      "max": [
        103.0694808959961,
        75.63526153564453,
        3.1177749633789063
      ],
      "min": [
        88.39423370361328,
        60.96001434326172,
        -1.8194255828857422
      ],
      "type": "VEC3"
    },
    {
      "bufferView": 2,
      "byteOffset": 141336,
      "componentType": 5126,
      "count": 60,
      "max": [
        0.6785992383956909,
        0.8628589510917664,
        1.0
      ],
      "min": [
        -0.6786002516746521,
        -0.8628627061843872,
        -0.6785997152328491
      ],
      "type": "VEC3"
    },
    {
      "bufferView": 1,
      "byteOffset": 46872,
      "componentType": 5126,
      "count": 60,
      "max": [
        0.7888401746749878,
        0.0967642068862915
      ],
      "min": [
        0.7195491194725037,
        0.00829310156404972
      ],
      "type": "VEC2"
    },
    {
      "bufferView": 0,
      "byteOffset": 102696,
      "componentType": 5125,
      "count": 78,
      "type": "SCALAR"
    },
    {
      "bufferView": 2,
      "byteOffset": 142056,
      "componentType": 5126,
      "count": 60,
      "max": [
        -42.14981460571289,
        2.9005355834960938,
        37.26615524291992
      ],
      "min": [
        -56.8250617980957,
        -11.774711608886719,
        32.32895278930664
      ],
      "type": "VEC3"
    },
    {
      "bufferView": 2,
      "byteOffset": 142776,
      "componentType": 5126,
      "count": 60,
      "max": [
        0.6785991787910461,
        0.8628591895103455,
        1.0
      ],
      "min": [
        -0.6786002516746521,
        -0.8628612756729126,
        -0.6785985827445984
      ],
      "type": "VEC3"
    },
    {
      "bufferView": 1,
      "byteOffset": 47352,
      "componentType": 5126,
      "count": 60,
      "max": [
        0.7888401746749878,
        0.0967642068862915
      ],
      "min": [
        0.7195491194725037,
        0.00829310156404972
      ],
      "type": "VEC2"
    },
    {
      "bufferView": 0,
      "byteOffset": 103008,
      "componentType": 5125,
      "count": 78,
      "type": "SCALAR"
    }
  ],
  "asset": {
    "extras": {
      "author": "warbossdil (https://sketchfab.com/warbossdil)",
      "license": "CC-BY-4.0 (http://creativecommons.org/licenses/by/4.0/)",
      "source": "https://sketchfab.com/3d-models/3december-fantasy-ghost-4262dcac54af4ee884739d1393541586",
      "title": "3December -Fantasy Ghost"
    },
    "generator": "Sketchfab-12.67.0",
    "version": "2.0"
  },
  "bufferViews": [
    {
      "buffer": 0,
      "byteLength": 103320,
      "name": "floatBufferViews",
      "target": 34963
    },
    {
      "buffer": 0,
      "byteLength": 47832,
      "byteOffset": 103320,
      "byteStride": 8,
      "name": "floatBufferViews",
      "target": 34962
    },
    {
      "buffer": 0,
      "byteLength": 143496,
      "byteOffset": 151152,
      "byteStride": 12,
      "name": "floatBufferViews",
      "target": 34962
    }
  ],
  "buffers": [
    {
      "byteLength": 294648,
      "uri": "scene.bin"
    }
  ],
  "extensionsUsed": [
    "KHR_materials_unlit"
  ],
  "images": [
    {
      "uri": "textures/lambert1_baseColor.png"
    },
    {
      "uri": "textures/lambert1_emissive.png"
    }
  ],
  "materials": [
    {
      "alphaMode": "BLEND",
      "doubleSided": true,
      "emissiveFactor": [
        1.0,
        1.0,
        1.0
      ],
      "emissiveTexture": {
        "index": 1
      },
      "extensions": {
        "KHR_materials_unlit": {}
      },
      "name": "lambert1",
      "pbrMetallicRoughness": {
        "baseColorTexture": {
          "index": 0
        },
        "metallicFactor": 0.0
      }
    }
  ],
  "meshes": [
    {
      "name": "polySurface2_lambert1_0",
      "primitives": [
        {
          "attributes": {
            "NORMAL": 1,
            "POSITION": 0,
            "TEXCOORD_0": 2
          },
          "indices": 3,
          "material": 0,
          "mode": 4
        }
      ]
    },
    {
      "name": "pCylinder5_lambert1_0",
      "primitives": [
        {
          "attributes": {
            "NORMAL": 5,
            "POSITION": 4,
            "TEXCOORD_0": 6
          },
          "indices": 7,
          "material": 0,
          "mode": 4
        }
      ]
    },
    {
      "name": "pTorus5_lambert1_0",
      "primitives": [
        {
          "attributes": {
            "NORMAL": 9,
            "POSITION": 8,
            "TEXCOORD_0": 10
          },
          "indices": 11,
          "material": 0,
          "mode": 4
        }
      ]
    },
    {
      "name": "pCube7_lambert1_0",
      "primitives": [
        {
          "attributes": {
            "NORMAL": 13,
            "POSITION": 12,
            "TEXCOORD_0": 14
          },
          "indices": 15,
          "material": 0,
          "mode": 4
        }
      ]
    },
    {
      "name": "polySurface3_lambert1_0",
      "primitives": [
        {
          "attributes": {
            "NORMAL": 17,
            "POSITION": 16,
            "TEXCOORD_0": 18
          },
          "indices": 19,
          "material": 0,
          "mode": 4
        }
      ]
    },
    {
      "name": "polySurface4_lambert1_0",
      "primitives": [
        {
          "attributes": {
            "NORMAL": 21,
            "POSITION": 20,
            "TEXCOORD_0": 22
          },
          "indices": 23,
          "material": 0,
          "mode": 4
        }
      ]
    },
    {
      "name": "polySurface5_lambert1_0",
      "primitives": [
        {
          "attributes": {
            "NORMAL": 25,
            "POSITION": 24,
            "TEXCOORD_0": 26
          },
          "indices": 27,
          "material": 0,
          "mode": 4
        }
      ]
    },
    {
      "name": "polySurface10_lambert1_0",
      "primitives": [
        {
          "attributes": {
            "NORMAL": 29,
            "POSITION": 28,
            "TEXCOORD_0": 30
          },
          "indices": 31,
          "material": 0,
          "mode": 4
        }
      ]
    },
    {
      "name": "pPlane2_lambert1_0",
      "primitives": [
        {
          "attributes": {
            "NORMAL": 33,
            "POSITION": 32,
            "TEXCOORD_0": 34
          },
          "indices": 35,
          "material": 0,
          "mode": 4
        }
      ]
    },
    {
      "name": "pPlane3_lambert1_0",
      "primitives": [
        {
          "attributes": {
            "NORMAL": 37,
            "POSITION": 36,
            "TEXCOORD_0": 38
          },
          "indices": 39,
          "material": 0,
          "mode": 4
        }
      ]
    },
    {
      "name": "pPlane4_lambert1_0",
      "primitives": [
        {
          "attributes": {
            "NORMAL": 41,
            "POSITION": 40,
            "TEXCOORD_0": 42
          },
          "indices": 43,
          "material": 0,
          "mode": 4
        }
      ]
    },
    {
      "name": "pPlane5_lambert1_0",
      "primitives": [
        {
          "attributes": {
            "NORMAL": 45,
            "POSITION": 44,
            "TEXCOORD_0": 46
          },
          "indices": 47,
          "material": 0,
          "mode": 4
        }
      ]
    },
    {
      "name": "pPlane6_lambert1_0",
      "primitives": [
        {
          "attributes": {
            "NORMAL": 49,
            "POSITION": 48,
            "TEXCOORD_0": 50
          },
          "indices": 51,
          "material": 0,
          "mode": 4
        }
      ]
    }
  ],
  "nodes": [
    {
      "children": [
        1
      ],
      "matrix": [
        1.0,
        0.0,
        0.0,
        0.0,
        0.0,
        2.220446049250313e-16,
        -1.0,
        0.0,
        0.0,
        1.0,
        2.220446049250313e-16,
        0.0,
        0.0,
        0.0,
        0.0,
        1.0
      ],
      "name": "Sketchfab_model"
    },
    {
      "children": [
        2
      ],
      "matrix": [
        1.0,
        0.0,
        0.0,
        0.0,
        0.0,
        0.0,
        1.0,
        0.0,
        0.0,
        -1.0,
        0.0,
        0.0,
        0.0,
        0.0,
        0.0,
        1.0
      ],
      "name": "9a6168c13cb644aa8c344be294c02a99.fbx"
    },
    {
      "children": [
        3,
        5,
        7,
        9,
        11,
        18,
        20,
        22,
        24,
        26,
        28
      ],
      "name": "RootNode"
    },
    {
      "children": [
        4
      ],
      "name": "polySurface2"
    },
    {
      "mesh": 0,
      "name": "polySurface2_lambert1_0"
    },
    {
      "children": [
        6
      ],
      "name": "pCylinder5"
    },
    {
      "mesh": 1,
      "name": "pCylinder5_lambert1_0"
    },
    {
      "children": [
        8
      ],
      "name": "pTorus5"
    },
    {
      "mesh": 2,
      "name": "pTorus5_lambert1_0"
    },
    {
      "children": [
        10
      ],
      "name": "pCube7"
    },
    {
      "mesh": 3,
      "name": "pCube7_lambert1_0"
    },
    {
      "children": [
        12,
        14,
        16
      ],
      "matrix": [
        -1.0,
        -0.0,
        -0.0,
        -0.0,
        -0.0,
        1.0,
        1.2246467991473532e-16,
        -0.0,
        -0.0,
        -1.2246467991473532e-16,
        1.0,
        -0.0,
        -19.512784957885742,
        0.0,
        0.0,
        1.0
      ],
      "name": "pCylinder11"
    },
    {
      "children": [
        13
      ],
      "name": "polySurface3"
    },
    {
      "mesh": 4,
      "name": "polySurface3_lambert1_0"
    },
    {
      "children": [
        15
      ],
      "name": "polySurface4"
    },
    {
      "mesh": 5,
      "name": "polySurface4_lambert1_0"
    },
    {
      "children": [
        17
      ],
      "name": "polySurface5"
    },
    {
      "mesh": 6,
      "name": "polySurface5_lambert1_0"
    },
    {
      "children": [
        19
      ],
      "name": "polySurface10"
    },
    {
      "mesh": 7,
      "name": "polySurface10_lambert1_0"
    },
    {
      "children": [
        21
      ],
      "name": "pPlane2"
    },
    {
      "mesh": 8,
      "name": "pPlane2_lambert1_0"
    },
    {
      "children": [
        23
      ],
      "name": "pPlane3"
    },
    {
      "mesh": 9,
      "name": "pPlane3_lambert1_0"
    },
    {
      "children": [
        25
      ],
      "name": "pPlane4"
    },
    {
      "mesh": 10,
      "name": "pPlane4_lambert1_0"
    },
    {
      "children": [
        27
      ],
      "name": "pPlane5"
    },
    {
      "mesh": 11,
      "name": "pPlane5_lambert1_0"
    },
    {
      "children": [
        29
      ],
      "name": "pPlane6"
    },
    {
      "mesh": 12,
      "name": "pPlane6_lambert1_0"
    }
  ],
  "samplers": [
    {
      "magFilter": 9729,
      "minFilter": 9987,
      "wrapS": 10497,
      "wrapT": 10497
    }
  ],
  "scene": 0,
  "scenes": [
    {
      "name": "Sketchfab_Scene",
      "nodes": [
        0
      ]
    }
  ],
  "textures": [
    {
      "sampler": 0,
      "source": 0
    },
    {
      "sampler": 0,
      "source": 1
    }
  ]
}
