{
  "accessors": [
    {
      "bufferView": 2,
      "componentType": 5126,
      "count": 1459,
      "max": [
        0.7894790172576904,
        3.816394090652466,
        1.7821110486984253
      ],
      "min": [
        0.4060389995574951,
        0.14959999918937683,
        -1.0641299486160278
      ],
      "type": "VEC3"
    },
    {
      "bufferView": 2,
      "byteOffset": 17508,
      "componentType": 5126,
      "count": 1459,
      "max": [
        1.0,
        1.0,
        1.0
      ],
      "min": [
        -1.0,
        -1.0,
        -1.0
      ],
      "type": "VEC3"
    },
    {
      "bufferView": 3,
      "componentType": 5126,
      "count": 1459,
      "max": [
        1.0,
        0.9747554063796997,
        1.0,
        1.0
      ],
      "min": [
        -0.8391565680503845,
        -0.9188241362571716,
        -1.0,
        1.0
      ],
      "type": "VEC4"
    },
    {
      "bufferView": 1,
      "componentType": 5126,
      "count": 1459,
      "max": [
        0.9980080127716064,
        0.9824690222740173
      ],
      "min": [
        0.0019920000340789557,
        0.00171999994199723
      ],
      "type": "VEC2"
    },
    {
      "bufferView": 0,
      "componentType": 5125,
      "count": 8316,
      "type": "SCALAR"
    },
    {
      "bufferView": 2,
      "byteOffset": 35016,
      "componentType": 5126,
      "count": 1459,
      "max": [
        0.7894790172576904,
        3.816394090652466,
        4.670536994934082
      ],
      "min": [
        0.4060389995574951,
        0.14959999918937683,
        1.8242950439453125
      ],
      "type": "VEC3"
    },
    {
      "bufferView": 2,
      "byteOffset": 52524,
      "componentType": 5126,
      "count": 1459,
      "max": [
        1.0,
        1.0,
        1.0
      ],
      "min": [
        -1.0,
        -1.0,
        -1.0
      ],
      "type": "VEC3"
    },
    {
      "bufferView": 3,
      "byteOffset": 23344,
      "componentType": 5126,
      "count": 1459,
      "max": [
        1.0,
        0.974755048751831,
        1.0,
        1.0
      ],
      "min": [
        -0.8391644358634949,
        -0.9188294410705566,
        -1.0,
        1.0
      ],
      "type": "VEC4"
    },
    {
      "bufferView": 1,
      "byteOffset": 11672,
      "componentType": 5126,
      "count": 1459,
      "max": [
        0.9980080127716064,
        0.9824690222740173
      ],
      "min": [
        0.0019920000340789557,
        0.00171999994199723
      ],
      "type": "VEC2"
    },
    {
      "bufferView": 0,
      "byteOffset": 33264,
      "componentType": 5125,
      "count": 8316,
      "type": "SCALAR"
    },
    {
      "bufferView": 2,
      "byteOffset": 70032,
      "componentType": 5126,
      "count": 2960,
      "max": [
        2.0493719577789307,
        1.3844499588012695,
        -1.110285997390747
      ],
      "min": [
        -0.7272400259971619,
        0.21780599653720856,
        -4.618577003479004
      ],
      "type": "VEC3"
    },
    {
      "bufferView": 2,
      "byteOffset": 105552,
      "componentType": 5126,
      "count": 2960,
      "max": [
        1.0,
        1.0,
        1.0
      ],
      "min": [
        -1.0,
        -1.0,
        -1.0
      ],
      "type": "VEC3"
    },
    {
      "bufferView": 3,
      "byteOffset": 46688,
      "componentType": 5126,
      "count": 2960,
      "max": [
        1.0,
        1.0,
        0.9378089308738708,
        1.0
      ],
      "min": [
        -0.8261348009109497,
        -1.0,
        -0.9867001175880432,
        1.0
      ],
      "type": "VEC4"
    },
    {
      "bufferView": 1,
      "byteOffset": 23344,
      "componentType": 5126,
      "count": 2960,
      "max": [
        0.9980080127716064,
        0.9952089786529541
      ],
      "min": [
        0.0019920000340789557,
        0.0019859999883919954
      ],
      "type": "VEC2"
    },
    {
      "bufferView": 0,
      "byteOffset": 66528,
      "componentType": 5125,
      "count": 16719,
      "type": "SCALAR"
    },
    {
      "bufferView": 2,
      "byteOffset": 141072,
      "componentType": 5126,
      "count": 384,
      "max": [
        -0.7290250062942505,
        3.3934121131896973,
        1.98095703125
      ],
      "min": [
        -1.1376529932022095,
        3.319709062576294,
        1.572329044342041
      ],
      "type": "VEC3"
    },
    {
      "bufferView": 2,
      "byteOffset": 145680,
      "componentType": 5126,
      "count": 384,
      "max": [
        1.0,
        1.0,
        1.0
      ],
      "min": [
        -1.0,
        -1.0,
        -1.0
      ],
      "type": "VEC3"
    },
    {
      "bufferView": 3,
      "byteOffset": 94048,
      "componentType": 5126,
      "count": 384,
      "max": [
        1.0,
        1.0,
        1.0,
        1.0
      ],
      "min": [
        -1.0,
        -1.0,
        -1.0,
        1.0
      ],
      "type": "VEC4"
    },
    {
      "bufferView": 1,
      "byteOffset": 47024,
      "componentType": 5126,
      "count": 384,
      "max": [
        0.65625,
        0.6884400248527527
      ],
      "min": [
        0.34375,
        -0.0
      ],
      "type": "VEC2"
    },
    {
      "bufferView": 0,
      "byteOffset": 133404,
      "componentType": 5125,
      "count": 1554,
      "type": "SCALAR"
    },
    {
      "bufferView": 2,
      "byteOffset": 150288,
      "componentType": 5126,
      "count": 394,
      "max": [
        0.5,
        3.9535279273986816,
        4.780929088592529
      ],
      "min": [
        -2.1991240978240967,
        0.012385999783873558,
        -4.671731948852539
      ],
      "type": "VEC3"
    },
    {
      "bufferView": 2,
      "byteOffset": 155016,
      "componentType": 5126,
      "count": 394,
      "max": [
        1.0,
        1.0,
        1.0
      ],
      "min": [
        -1.0,
        -1.0,
        -1.0
      ],
      "type": "VEC3"
    },
    {
      "bufferView": 3,
      "byteOffset": 100192,
      "componentType": 5126,
      "count": 394,
      "max": [
        1.0,
        1.0,
        1.0,
        1.0
      ],
      "min": [
        0.0,
        -1.0,
        -1.0,
        1.0
      ],
      "type": "VEC4"
    },
    {
      "bufferView": 1,
      "byteOffset": 50096,
      "componentType": 5126,
      "count": 394,
      "max": [
        0.9980080127716064,
        0.9923329949378967
      ],
      "min": [
        0.0019920000340789557,
        0.0019809999503195286
      ],
      "type": "VEC2"
    },
    {
      "bufferView": 0,
      "byteOffset": 139620,
      "componentType": 5125,
      "count": 1140,
      "type": "SCALAR"
    }
  ],
  "asset": {
    "extras": {
      "author": "ArtDan (https://sketchfab.com/artdan)",
      "license": "CC-BY-4.0 (http://creativecommons.org/licenses/by/4.0/)",
      "source": "https://sketchfab.com/3d-models/cabinet-with-sink-e8c432ad9f0d403da6e58c4159808cec",
      "title": "cabinet with sink"
    },
    "generator": "Sketchfab-12.66.0",
    "version": "2.0"
  },
  "bufferViews": [
    {
      "buffer": 0,
      "byteLength": 144180,
      "name": "floatBufferViews",
      "target": 34963
    },
    {
      "buffer": 0,
      "byteLength": 53248,
      "byteOffset": 144180,
      "byteStride": 8,
      "name": "floatBufferViews",
      "target": 34962
    },
    {
      "buffer": 0,
      "byteLength": 159744,
      "byteOffset": 197428,
      "byteStride": 12,
      "name": "floatBufferViews",
      "target": 34962
    },
    {
      "buffer": 0,
      "byteLength": 106496,
      "byteOffset": 357172,
      "byteStride": 16,
      "name": "floatBufferViews",
      "target": 34962
    }
  ],
  "buffers": [
    {
      "byteLength": 463668,
      "uri": "scene.bin"
    }
  ],
  "images": [
    {
      "uri": "textures/Mat_Pia_baseColor.jpeg"
    },
    {
      "uri": "textures/Mat_Pia_metallicRoughness.png"
    },
    {
      "uri": "textures/Mat_Pia_normal.png"
    },
    {
      "uri": "textures/Mat_Ralo1_baseColor.jpeg"
    },
    {
      "uri": "textures/Mat_Ralo1_metallicRoughness.png"
    },
    {
      "uri": "textures/Mat_Ralo1_normal.png"
    },
    {
      "uri": "textures/Mat_Gaveta2_baseColor.jpeg"
    },
    {
      "uri": "textures/Mat_Gaveta2_metallicRoughness.png"
    },
    {
      "uri": "textures/Mat_Gaveta2_normal.png"
    },
    {
      "uri": "textures/Mat_Pia2_baseColor.jpeg"
    },
    {
      "uri": "textures/Mat_Pia2_metallicRoughness.png"
    },
    {
      "uri": "textures/Mat_Pia2_normal.png"
    },
    {
      "uri": "textures/Mat_PortaPia_baseColor.jpeg"
    },
    {
      "uri": "textures/Mat_PortaPia_metallicRoughness.png"
    },
    {
      "uri": "textures/Mat_PortaPia_normal.png"
    }
  ],
  "materials": [
    {
      "doubleSided": true,
      "name": "Mat_Pia",
      "normalTexture": {
        "index": 2
      },
      "occlusionTexture": {
        "index": 1
      },
      "pbrMetallicRoughness": {
        "baseColorTexture": {
          "index": 0
        },
        "metallicRoughnessTexture": {
          "index": 1
        }
      }
    },
    {
      "doubleSided": true,
      "name": "Mat_Ralo1",
      "normalTexture": {
        "index": 5
      },
      "occlusionTexture": {
        "index": 4
      },
      "pbrMetallicRoughness": {
        "baseColorTexture": {
          "index": 3
        },
        "metallicRoughnessTexture": {
          "index": 4
        }
      }
    },
    {
      "doubleSided": true,
      "name": "Mat_Gaveta2",
      "normalTexture": {
        "index": 8
      },
      "occlusionTexture": {
        "index": 7
      },
      "pbrMetallicRoughness": {
        "baseColorTexture": {
          "index": 6
        },
        "metallicRoughnessTexture": {
          "index": 7
        }
      }
    },
    {
      "doubleSided": true,
      "name": "Mat_Pia2",
      "normalTexture": {
        "index": 11
      },
      "occlusionTexture": {
        "index": 10
      },
      "pbrMetallicRoughness": {
        "baseColorTexture": {
          "index": 9
        },
        "metallicRoughnessTexture": {
          "index": 10
        }
      }
    },
    {
      "doubleSided": true,
      "name": "Mat_PortaPia",
      "normalTexture": {
        "index": 14
      },
      "occlusionTexture": {
        "index": 13
      },
      "pbrMetallicRoughness": {
        "baseColorTexture": {
          "index": 12
        },
        "metallicRoughnessTexture": {
          "index": 13
        }
      }
    }
  ],
  "meshes": [
    {
      "name": "defaultMaterial",
      "primitives": [
        {
          "attributes": {
            "NORMAL": 1,
            "POSITION": 0,
            "TANGENT": 2,
            "TEXCOORD_0": 3
          },
          "indices": 4,
          "material": 4,
          "mode": 4
        }
      ]
    },
    {
      "name": "defaultMaterial",
      "primitives": [
        {
          "attributes": {
            "NORMAL": 6,
            "POSITION": 5,
            "TANGENT": 7,
            "TEXCOORD_0": 8
          },
          "indices": 9,
          "material": 3,
          "mode": 4
        }
      ]
    },
    {
      "name": "defaultMaterial",
      "primitives": [
        {
          "attributes": {
            "NORMAL": 11,
            "POSITION": 10,
            "TANGENT": 12,
            "TEXCOORD_0": 13
          },
          "indices": 14,
          "material": 2,
          "mode": 4
        }
      ]
    },
    {
      "name": "defaultMaterial",
      "primitives": [
        {
          "attributes": {
            "NORMAL": 16,
            "POSITION": 15,
            "TANGENT": 17,
            "TEXCOORD_0": 18
          },
          "indices": 19,
          "material": 1,
          "mode": 4
        }
      ]
    },
    {
      "name": "defaultMaterial",
      "primitives": [
        {
          "attributes": {
            "NORMAL": 21,
            "POSITION": 20,
            "TANGENT": 22,
            "TEXCOORD_0": 23
          },
          "indices": 24,
          "material": 0,
          "mode": 4
        }
      ]
    }
  ],
  "nodes": [
    {
      "children": [
        1
      ],
      "matrix": [
        0.1713411808013916,
        0.0,
        0.0,
        0.0,
        0.0,
        3.804538479843336e-17,
        -0.1713411808013916,
        0.0,
        0.0,
        0.1713411808013916,
        3.804538479843336e-17,
        0.0,
        0.0,
        0.0,
        0.0,
        1.0
      ],
      "name": "Sketchfab_model"
    },
    {
      "children": [
        2,
        4,
        6,
        8,
        10
      ],
      "matrix": [
        1.0,
        0.0,
        0.0,
        0.0,
        0.0,
        -4.371139006309477e-08,
        0.999999999999999,
        0.0,
        0.0,
        -0.999999999999999,
        -4.371139006309477e-08,
        0.0,
        0.0,
        0.0,
        0.0,
        1.0
      ],
      "name": "Collada visual scene group"
    },
    {
      "children": [
        3
      ],
      "name": "PortaPia1"
    },
    {
      "mesh": 0,
      "name": "defaultMaterial"
    },
    {
      "children": [
        5
      ],
      "name": "PortaPia2"
    },
    {
      "mesh": 1,
      "name": "defaultMaterial"
    },
    {
      "children": [
        7
      ],
      "name": "Gaveta1"
    },
    {
      "mesh": 2,
      "name": "defaultMaterial"
    },
    {
      "children": [
        9
      ],
      "name": "Ralo"
    },
    {
      "mesh": 3,
      "name": "defaultMaterial"
    },
    {
      "children": [
        11
      ],
      "name": "Pia"
    },
    {
      "mesh": 4,
      "name": "defaultMaterial"
    }
  ],
  "samplers": [
    {
      "magFilter": 9729,
      "minFilter": 9987,
      "wrapS": 10497,
      "wrapT": 10497
    }
  ],
  "scene": 0,
  "scenes": [
    {
      "name": "Sketchfab_Scene",
      "nodes": [
        0
      ]
    }
  ],
  "textures": [
    {
      "sampler": 0,
      "source": 0
    },
    {
      "sampler": 0,
      "source": 1
    },
    {
      "sampler": 0,
      "source": 2
    },
    {
      "sampler": 0,
      "source": 3
    },
    {
      "sampler": 0,
      "source": 4
    },
    {
      "sampler": 0,
      "source": 5
    },
    {
      "sampler": 0,
      "source": 6
    },
    {
      "sampler": 0,
      "source": 7
    },
    {
      "sampler": 0,
      "source": 8
    },
    {
      "sampler": 0,
      "source": 9
    },
    {
      "sampler": 0,
      "source": 10
    },
    {
      "sampler": 0,
      "source": 11
    },
    {
      "sampler": 0,
      "source": 12
    },
    {
      "sampler": 0,
      "source": 13
    },
    {
      "sampler": 0,
      "source": 14
    }
  ]
}
