{
  "accessors": [
    {
      "bufferView": 2,
      "componentType": 5126,
      "count": 1736,
      "max": [
        3.7832000255584717,
        2.4254000186920166,
        8.494799613952637
      ],
      "min": [
        -3.7832000255584717,
        -2.4254000186920166,
        -0.01119999960064888
      ],
      "type": "VEC3"
    },
    {
      "bufferView": 2,
      "byteOffset": 20832,
      "componentType": 5126,
      "count": 1736,
      "max": [
        0.9999555349349976,
        0.9999988079071045,
        0.9999990463256836
      ],
      "min": [
        -0.9999381303787231,
        -0.9999943971633911,
        -0.9999927282333374
      ],
      "type": "VEC3"
    },
    {
      "bufferView": 3,
      "componentType": 5126,
      "count": 1736,
      "max": [
        0.9997443556785583,
        1.0,
        0.9997071623802185,
        1.0
      ],
      "min": [
        -0.9998292326927185,
        -0.9996894001960754,
        -0.9997929334640503,
        -1.0
      ],
      "type": "VEC4"
    },
    {
      "bufferView": 1,
      "componentType": 5126,
      "count": 1736,
      "max": [
        0.9900000095367432,
        0.9900000095367432
      ],
      "min": [
        0.009999999776482582,
        0.014399999752640724
      ],
      "type": "VEC2"
    },
    {
      "bufferView": 0,
      "componentType": 5125,
      "count": 9114,
      "type": "SCALAR"
    }
  ],
  "asset": {
    "extras": {
      "author": "shedmon (https://sketchfab.com/shedmon)",
      "license": "CC-BY-4.0 (http://creativecommons.org/licenses/by/4.0/)",
      "source": "https://sketchfab.com/3d-models/dirty-toilet-389d5427a1f344c4aa4883ec5a6aaf05",
      "title": "Dirty Toilet"
    },
    "generator": "Sketchfab-12.56.0",
    "version": "2.0"
  },
  "bufferViews": [
    {
      "buffer": 0,
      "byteLength": 36456,
      "name": "floatBufferViews",
      "target": 34963
    },
    {
      "buffer": 0,
      "byteLength": 13888,
      "byteOffset": 36456,
      "byteStride": 8,
      "name": "floatBufferViews",
      "target": 34962
    },
    {
      "buffer": 0,
      "byteLength": 41664,
      "byteOffset": 50344,
      "byteStride": 12,
      "name": "floatBufferViews",
      "target": 34962
    },
    {
      "buffer": 0,
      "byteLength": 27776,
      "byteOffset": 92008,
      "byteStride": 16,
      "name": "floatBufferViews",
      "target": 34962
    }
  ],
  "buffers": [
    {
      "byteLength": 119784,
      "uri": "scene.bin"
    }
  ],
  "images": [
    {
      "uri": "textures/Default_baseColor.png"
    },
    {
      "uri": "textures/Default_metallicRoughness.png"
    },
    {
      "uri": "textures/Default_normal.png"
    }
  ],
  "materials": [
    {
      "doubleSided": true,
      "name": "Default",
      "normalTexture": {
        "index": 2
      },
      "occlusionTexture": {
        "index": 1
      },
      "pbrMetallicRoughness": {
        "baseColorTexture": {
          "index": 0
        },
        "metallicRoughnessTexture": {
          "index": 1
        }
      }
    }
  ],
  "meshes": [
    {
      "name": "Object_0",
      "primitives": [
        {
          "attributes": {
            "NORMAL": 1,
            "POSITION": 0,
            "TANGENT": 2,
            "TEXCOORD_0": 3
          },
          "indices": 4,
          "material": 0,
          "mode": 4
        }
      ]
    }
  ],
  "nodes": [
    {
      "children": [
        1
      ],
      "matrix": [
        1.0,
        0.0,
        0.0,
        0.0,
        0.0,
        2.220446049250313e-16,
        -1.0,
        0.0,
        0.0,
        1.0,
        2.220446049250313e-16,
        0.0,
        0.0,
        0.0,
        0.0,
        1.0
      ],
      "name": "Sketchfab_model"
    },
    {
      "children": [
        2
      ],
      "name": "a71f0dca77074890be7cbe8e746febaf.obj.cleaner.materialmerger.gles"
    },
    {
      "mesh": 0,
      "name": "Object_2"
    }
  ],
  "samplers": [
    {
      "magFilter": 9729,
      "minFilter": 9987,
      "wrapS": 10497,
      "wrapT": 10497
    }
  ],
  "scene": 0,
  "scenes": [
    {
      "name": "Sketchfab_Scene",
      "nodes": [
        0
      ]
    }
  ],
  "textures": [
    {
      "sampler": 0,
      "source": 0
    },
    {
      "sampler": 0,
      "source": 1
    },
    {
      "sampler": 0,
      "source": 2
    }
  ]
}
