{
  "accessors": [
    {
      "bufferView": 2,
      "componentType": 5126,
      "count": 127,
      "max": [
        0.58194500207901,
        0.47635799646377563,
        0.6468350291252136
      ],
      "min": [
        -0.6303790211677551,
        -1.0,
        -0.6468350291252136
      ],
      "type": "VEC3"
    },
    {
      "bufferView": 2,
      "byteOffset": 1524,
      "componentType": 5126,
      "count": 127,
      "max": [
        1.0,
        1.0,
        1.0
      ],
      "min": [
        -1.0,
        -1.0,
        -1.0
      ],
      "type": "VEC3"
    },
    {
      "bufferView": 3,
      "componentType": 5126,
      "count": 127,
      "max": [
        1.0,
        0.0013832655968144536,
        1.0,
        1.0
      ],
      "min": [
        -1.0,
        -0.00045294701703824103,
        -1.0,
        1.0
      ],
      "type": "VEC4"
    },
    {
      "bufferView": 1,
      "componentType": 5126,
      "count": 127,
      "max": [
        0.9749580025672913,
        0.9938160181045532
      ],
      "min": [
        0.009058119729161263,
        0.006708810105919838
      ],
      "type": "VEC2"
    },
    {
      "bufferView": 0,
      "componentType": 5125,
      "count": 288,
      "type": "SCALAR"
    },
    {
      "bufferView": 2,
      "byteOffset": 3048,
      "componentType": 5126,
      "count": 552,
      "max": [
        0.4751890003681183,
        0.48267999291419983,
        0.5871359705924988
      ],
      "min": [
        -0.39625000953674316,
        0.20248599350452423,
        -0.5925019979476929
      ],
      "type": "VEC3"
    },
    {
      "bufferView": 2,
      "byteOffset": 9672,
      "componentType": 5126,
      "count": 552,
      "max": [
        0.9970062375068665,
        1.0,
        0.9938994646072388
      ],
      "min": [
        -0.9970062375068665,
        0.07732251286506653,
        -0.9938994646072388
      ],
      "type": "VEC3"
    },
    {
      "bufferView": 3,
      "byteOffset": 2032,
      "componentType": 5126,
      "count": 552,
      "max": [
        0.998444139957428,
        0.8681339621543884,
        0.9999995827674866,
        1.0
      ],
      "min": [
        -0.9983049631118774,
        -0.8667386174201965,
        -1.0,
        1.0
      ],
      "type": "VEC4"
    },
    {
      "bufferView": 1,
      "byteOffset": 1016,
      "componentType": 5126,
      "count": 552,
      "max": [
        0.9871240258216858,
        0.34094899892807007
      ],
      "min": [
        0.35481101274490356,
        0.024723699316382408
      ],
      "type": "VEC2"
    },
    {
      "bufferView": 0,
      "byteOffset": 1152,
      "componentType": 5125,
      "count": 2463,
      "type": "SCALAR"
    },
    {
      "bufferView": 2,
      "byteOffset": 16296,
      "componentType": 5126,
      "count": 543,
      "max": [
        -0.06544339656829834,
        1.0,
        0.29293200373649597
      ],
      "min": [
        -0.37968501448631287,
        0.4824109971523285,
        0.15696999430656433
      ],
      "type": "VEC3"
    },
    {
      "bufferView": 2,
      "byteOffset": 22812,
      "componentType": 5126,
      "count": 543,
      "max": [
        1.0,
        1.0,
        1.0
      ],
      "min": [
        -1.0,
        -1.0,
        -1.0
      ],
      "type": "VEC3"
    },
    {
      "bufferView": 3,
      "byteOffset": 10864,
      "componentType": 5126,
      "count": 543,
      "max": [
        1.0,
        1.0,
        1.0,
        1.0
      ],
      "min": [
        -1.0,
        -1.0,
        -1.0,
        -1.0
      ],
      "type": "VEC4"
    },
    {
      "bufferView": 1,
      "byteOffset": 5432,
      "componentType": 5126,
      "count": 543,
      "max": [
        0.9981269836425781,
        0.0683583989739418
      ],
      "min": [
        0.7262330055236816,
        0.002820259891450405
      ],
      "type": "VEC2"
    },
    {
      "bufferView": 0,
      "byteOffset": 11004,
      "componentType": 5125,
      "count": 2286,
      "type": "SCALAR"
    },
    {
      "bufferView": 2,
      "byteOffset": 29328,
      "componentType": 5126,
      "count": 189,
      "max": [
        0.6303790211677551,
        0.2839820086956024,
        0.5098109841346741
      ],
      "min": [
        0.5687450170516968,
        0.007332160137593746,
        0.49300798773765564
      ],
      "type": "VEC3"
    },
    {
      "bufferView": 2,
      "byteOffset": 31596,
      "componentType": 5126,
      "count": 189,
      "max": [
        1.0,
        0.9556737542152405,
        0.9999763369560242
      ],
      "min": [
        -1.0,
        -0.955673098564148,
        -0.9999763369560242
      ],
      "type": "VEC3"
    },
    {
      "bufferView": 3,
      "byteOffset": 19552,
      "componentType": 5126,
      "count": 189,
      "max": [
        0.9147269129753113,
        1.0,
        0.9998871684074402,
        -1.0
      ],
      "min": [
        -0.9147509932518005,
        -0.9999762773513794,
        -0.788919985294342,
        -1.0
      ],
      "type": "VEC4"
    },
    {
      "bufferView": 1,
      "byteOffset": 9776,
      "componentType": 5126,
      "count": 189,
      "max": [
        0.6302040219306946,
        0.30275100469589233
      ],
      "min": [
        0.3894230127334595,
        0.2506909966468811
      ],
      "type": "VEC2"
    },
    {
      "bufferView": 0,
      "byteOffset": 20148,
      "componentType": 5125,
      "count": 768,
      "type": "SCALAR"
    }
  ],
  "asset": {
    "extras": {
      "author": "Zlat (https://sketchfab.com/goldie)",
      "license": "CC-BY-NC-4.0 (http://creativecommons.org/licenses/by-nc/4.0/)",
      "source": "https://sketchfab.com/3d-models/kitchen-counter-with-sink-ad9518f2a396411b8052d45575201dae",
      "title": "Kitchen counter with sink"
    },
    "generator": "Sketchfab-12.68.0",
    "version": "2.0"
  },
  "bufferViews": [
    {
      "buffer": 0,
      "byteLength": 23220,
      "name": "floatBufferViews",
      "target": 34963
    },
    {
      "buffer": 0,
      "byteLength": 11288,
      "byteOffset": 23220,
      "byteStride": 8,
      "name": "floatBufferViews",
      "target": 34962
    },
    {
      "buffer": 0,
      "byteLength": 33864,
      "byteOffset": 34508,
      "byteStride": 12,
      "name": "floatBufferViews",
      "target": 34962
    },
    {
      "buffer": 0,
      "byteLength": 22576,
      "byteOffset": 68372,
      "byteStride": 16,
      "name": "floatBufferViews",
      "target": 34962
    }
  ],
  "buffers": [
    {
      "byteLength": 90948,
      "uri": "scene.bin"
    }
  ],
  "images": [
    {
      "uri": "textures/material_baseColor.jpeg"
    },
    {
      "uri": "textures/material_metallicRoughness.png"
    },
    {
      "uri": "textures/material_normal.png"
    }
  ],
  "materials": [
    {
      "doubleSided": true,
      "name": "material",
      "normalTexture": {
        "index": 2
      },
      "occlusionTexture": {
        "index": 1
      },
      "pbrMetallicRoughness": {
        "baseColorTexture": {
          "index": 0
        },
        "metallicRoughnessTexture": {
          "index": 1
        }
      }
    }
  ],
  "meshes": [
    {
      "name": "defaultMaterial",
      "primitives": [
        {
          "attributes": {
            "NORMAL": 1,
            "POSITION": 0,
            "TANGENT": 2,
            "TEXCOORD_0": 3
          },
          "indices": 4,
          "material": 0,
          "mode": 4
        }
      ]
    },
    {
      "name": "defaultMaterial",
      "primitives": [
        {
          "attributes": {
            "NORMAL": 6,
            "POSITION": 5,
            "TANGENT": 7,
            "TEXCOORD_0": 8
          },
          "indices": 9,
          "material": 0,
          "mode": 4
        }
      ]
    },
    {
      "name": "defaultMaterial",
      "primitives": [
        {
          "attributes": {
            "NORMAL": 11,
            "POSITION": 10,
            "TANGENT": 12,
            "TEXCOORD_0": 13
          },
          "indices": 14,
          "material": 0,
          "mode": 4
        }
      ]
    },
    {
      "name": "defaultMaterial",
      "primitives": [
        {
          "attributes": {
            "NORMAL": 16,
            "POSITION": 15,
            "TANGENT": 17,
            "TEXCOORD_0": 18
          },
          "indices": 19,
          "material": 0,
          "mode": 4
        }
      ]
    }
  ],
  "nodes": [
    {
      "children": [
        1
      ],
      "matrix": [
        1.0,
        0.0,
        0.0,
        0.0,
        0.0,
        2.220446049250313e-16,
        -1.0,
        0.0,
        0.0,
        1.0,
        2.220446049250313e-16,
        0.0,
        0.0,
        0.0,
        0.0,
        1.0
      ],
      "name": "Sketchfab_model"
    },
    {
      "children": [
        2,
        4,
        6,
        8
      ],
      "matrix": [
        1.0,
        0.0,
        0.0,
        0.0,
        0.0,
        -4.371139006309477e-08,
        0.999999999999999,
        0.0,
        0.0,
        -0.999999999999999,
        -4.371139006309477e-08,
        0.0,
        0.0,
        0.0,
        0.0,
        1.0
      ],
      "name": "Collada visual scene group"
    },
    {
      "children": [
        3
      ],
      "name": "body_low"
    },
    {
      "mesh": 0,
      "name": "defaultMaterial"
    },
    {
      "children": [
        5
      ],
      "name": "sink_low"
    },
    {
      "mesh": 1,
      "name": "defaultMaterial"
    },
    {
      "children": [
        7
      ],
      "name": "tap_low"
    },
    {
      "mesh": 2,
      "name": "defaultMaterial"
    },
    {
      "children": [
        9
      ],
      "name": "handle_low"
    },
    {
      "mesh": 3,
      "name": "defaultMaterial"
    }
  ],
  "samplers": [
    {
      "magFilter": 9729,
      "minFilter": 9987,
      "wrapS": 10497,
      "wrapT": 10497
    }
  ],
  "scene": 0,
  "scenes": [
    {
      "name": "Sketchfab_Scene",
      "nodes": [
        0
      ]
    }
  ],
  "textures": [
    {
      "sampler": 0,
      "source": 0
    },
    {
      "sampler": 0,
      "source": 1
    },
    {
      "sampler": 0,
      "source": 2
    }
  ]
}
