{
  "accessors": [
    {
      "bufferView": 2,
      "componentType": 5126,
      "count": 30588,
      "max": [
        1.4036550521850586,
        1.2884900569915771,
        3.732743978500366
      ],
      "min": [
        -1.0515040159225464,
        -1.7982109785079956,
        0.012590000405907631
      ],
      "type": "VEC3"
    },
    {
      "bufferView": 2,
      "byteOffset": 367056,
      "componentType": 5126,
      "count": 30588,
      "max": [
        0.9999457597732544,
        0.9999997615814209,
        0.9999771118164063
      ],
      "min": [
        -0.9999305009841919,
        -0.9999982118606567,
        -0.9999943971633911
      ],
      "type": "VEC3"
    },
    {
      "bufferView": 3,
      "componentType": 5126,
      "count": 30588,
      "max": [
        0.9999892711639404,
        0.9999164938926697,
        0.9997266530990601,
        1.0
      ],
      "min": [
        -0.9999685287475586,
        -0.999998927116394,
        -0.999973714351654,
        -1.0
      ],
      "type": "VEC4"
    },
    {
      "bufferView": 1,
      "componentType": 5126,
      "count": 30588,
      "max": [
        1.0,
        1.0
      ],
      "min": [
        0.0,
        0.0
      ],
      "type": "VEC2"
    },
    {
      "bufferView": 0,
      "componentType": 5125,
      "count": 162804,
      "type": "SCALAR"
    }
  ],
  "asset": {
    "extras": {
      "author": "Lassi Kaukonen (https://sketchfab.com/thesidekick)",
      "license": "CC-BY-4.0 (http://creativecommons.org/licenses/by/4.0/)",
      "source": "https://sketchfab.com/3d-models/copper-coffee-pot-4d4f126e6a0d4988bf2d05027576def1",
      "title": "Copper coffee pot"
    },
    "generator": "Sketchfab-12.68.0",
    "version": "2.0"
  },
  "bufferViews": [
    {
      "buffer": 0,
      "byteLength": 651216,
      "name": "floatBufferViews",
      "target": 34963
    },
    {
      "buffer": 0,
      "byteLength": 244704,
      "byteOffset": 651216,
      "byteStride": 8,
      "name": "floatBufferViews",
      "target": 34962
    },
    {
      "buffer": 0,
      "byteLength": 734112,
      "byteOffset": 895920,
      "byteStride": 12,
      "name": "floatBufferViews",
      "target": 34962
    },
    {
      "buffer": 0,
      "byteLength": 489408,
      "byteOffset": 1630032,
      "byteStride": 16,
      "name": "floatBufferViews",
      "target": 34962
    }
  ],
  "buffers": [
    {
      "byteLength": 2119440,
      "uri": "scene.bin"
    }
  ],
  "images": [
    {
      "uri": "textures/Default_OBJ.001_baseColor.jpeg"
    },
    {
      "uri": "textures/Default_OBJ.001_metallicRoughness.png"
    },
    {
      "uri": "textures/Default_OBJ.001_emissive.jpeg"
    },
    {
      "uri": "textures/Default_OBJ.001_normal.png"
    }
  ],
  "materials": [
    {
      "doubleSided": true,
      "emissiveFactor": [
        0.5643435221724299,
        0.5643435221724299,
        0.5643435221724299
      ],
      "emissiveTexture": {
        "index": 2
      },
      "name": "Default_OBJ.001",
      "normalTexture": {
        "index": 3
      },
      "occlusionTexture": {
        "index": 1
      },
      "pbrMetallicRoughness": {
        "baseColorTexture": {
          "index": 0
        },
        "metallicRoughnessTexture": {
          "index": 1
        },
        "roughnessFactor": 0.4571281337216726
      }
    }
  ],
  "meshes": [
    {
      "name": "Object_0",
      "primitives": [
        {
          "attributes": {
            "NORMAL": 1,
            "POSITION": 0,
            "TANGENT": 2,
            "TEXCOORD_0": 3
          },
          "indices": 4,
          "material": 0,
          "mode": 4
        }
      ]
    }
  ],
  "nodes": [
    {
      "children": [
        1
      ],
      "matrix": [
        1.0,
        0.0,
        0.0,
        0.0,
        0.0,
        2.220446049250313e-16,
        -1.0,
        0.0,
        0.0,
        1.0,
        2.220446049250313e-16,
        0.0,
        0.0,
        0.0,
        0.0,
        1.0
      ],
      "name": "Sketchfab_model"
    },
    {
      "children": [
        2
      ],
      "name": "Copper_coffee_pot.obj.cleaner.materialmerger.gles"
    },
    {
      "mesh": 0,
      "name": "Object_2"
    }
  ],
  "samplers": [
    {
      "magFilter": 9729,
      "minFilter": 9987,
      "wrapS": 10497,
      "wrapT": 10497
    }
  ],
  "scene": 0,
  "scenes": [
    {
      "name": "Sketchfab_Scene",
      "nodes": [
        0
      ]
    }
  ],
  "textures": [
    {
      "sampler": 0,
      "source": 0
    },
    {
      "sampler": 0,
      "source": 1
    },
    {
      "sampler": 0,
      "source": 2
    },
    {
      "sampler": 0,
      "source": 3
    }
  ]
}
