{
  "accessors": [
    {
      "bufferView": 2,
      "componentType": 5126,
      "count": 975,
      "max": [
        16.52750015258789,
        21.459400177001953,
        25.0
      ],
      "min": [
        -16.52750015258789,
        -19.762300491333008,
        -25.0
      ],
      "type": "VEC3"
    },
    {
      "bufferView": 2,
      "byteOffset": 11700,
      "componentType": 5126,
      "count": 975,
      "max": [
        0.9999753832817078,
        0.9999875426292419,
        0.9999306201934814
      ],
      "min": [
        -0.9999753832817078,
        -0.9999879002571106,
        -0.9999342560768127
      ],
      "type": "VEC3"
    },
    {
      "bufferView": 3,
      "componentType": 5126,
      "count": 975,
      "max": [
        1.0,
        1.0,
        0.9407396912574768,
        1.0
      ],
      "min": [
        -0.9999982118606567,
        -1.0,
        -0.8470266461372375,
        1.0
      ],
      "type": "VEC4"
    },
    {
      "bufferView": 1,
      "componentType": 5126,
      "count": 975,
      "max": [
        0.9998800158500671,
        0.9979310035705566
      ],
      "min": [
        0.00011989299673587084,
        0.00011989299673587084
      ],
      "type": "VEC2"
    },
    {
      "bufferView": 0,
      "componentType": 5125,
      "count": 4176,
      "type": "SCALAR"
    }
  ],
  "asset": {
    "extras": {
      "author": "wolfgar74 (https://sketchfab.com/wolfgar74)",
      "license": "CC-BY-4.0 (http://creativecommons.org/licenses/by/4.0/)",
      "source": "https://sketchfab.com/3d-models/decretive-medieval-pitcher-free-38a4e3002f2841ccbc02d71d9ea30862",
      "title": "Decretive Medieval Pitcher (Free)"
    },
    "generator": "Sketchfab-12.68.0",
    "version": "2.0"
  },
  "bufferViews": [
    {
      "buffer": 0,
      "byteLength": 16704,
      "name": "floatBufferViews",
      "target": 34963
    },
    {
      "buffer": 0,
      "byteLength": 7800,
      "byteOffset": 16704,
      "byteStride": 8,
      "name": "floatBufferViews",
      "target": 34962
    },
    {
      "buffer": 0,
      "byteLength": 23400,
      "byteOffset": 24504,
      "byteStride": 12,
      "name": "floatBufferViews",
      "target": 34962
    },
    {
      "buffer": 0,
      "byteLength": 15600,
      "byteOffset": 47904,
      "byteStride": 16,
      "name": "floatBufferViews",
      "target": 34962
    }
  ],
  "buffers": [
    {
      "byteLength": 63504,
      "uri": "scene.bin"
    }
  ],
  "images": [
    {
      "uri": "textures/DecoPitcher_baseColor.png"
    },
    {
      "uri": "textures/DecoPitcher_metallicRoughness.png"
    },
    {
      "uri": "textures/DecoPitcher_normal.png"
    }
  ],
  "materials": [
    {
      "doubleSided": true,
      "name": "DecoPitcher",
      "normalTexture": {
        "index": 2
      },
      "occlusionTexture": {
        "index": 1
      },
      "pbrMetallicRoughness": {
        "baseColorTexture": {
          "index": 0
        },
        "metallicRoughnessTexture": {
          "index": 1
        }
      }
    }
  ],
  "meshes": [
    {
      "name": "Object_0",
      "primitives": [
        {
          "attributes": {
            "NORMAL": 1,
            "POSITION": 0,
            "TANGENT": 2,
            "TEXCOORD_0": 3
          },
          "indices": 4,
          "material": 0,
          "mode": 4
        }
      ]
    }
  ],
  "nodes": [
    {
      "children": [
        1
      ],
      "matrix": [
        -2.220446049250313e-16,
        -6.123234262925839e-17,
        1.0,
        0.0,
        1.0,
        -2.465190328815662e-32,
        2.220446049250313e-16,
        0.0,
        0.0,
        1.0,
        6.123234262925839e-17,
        0.0,
        -0.8485555648803711,
        1.8841083241369436e-16,
        -0.8485116958618164,
        1.0
      ],
      "name": "Sketchfab_model"
    },
    {
      "children": [
        2
      ],
      "name": "DecoritiveMedievalPitcher.obj.cleaner.materialmerger.gles"
    },
    {
      "mesh": 0,
      "name": "Object_2"
    }
  ],
  "samplers": [
    {
      "magFilter": 9729,
      "minFilter": 9987,
      "wrapS": 10497,
      "wrapT": 10497
    }
  ],
  "scene": 0,
  "scenes": [
    {
      "name": "Sketchfab_Scene",
      "nodes": [
        0
      ]
    }
  ],
  "textures": [
    {
      "sampler": 0,
      "source": 0
    },
    {
      "sampler": 0,
      "source": 1
    },
    {
      "sampler": 0,
      "source": 2
    }
  ]
}
