{
  "accessors": [
    {
      "bufferView": 2,
      "componentType": 5126,
      "count": 144,
      "max": [
        -0.26881399750709534,
        1.2739299535751343,
        -0.391525000333786
      ],
      "min": [
        -0.27907899022102356,
        1.2683769464492798,
        -0.5915250182151794
      ],
      "type": "VEC3"
    },
    {
      "bufferView": 2,
      "byteOffset": 1728,
      "componentType": 5126,
      "count": 144,
      "max": [
        0.9984246492385864,
        0.9984246492385864,
        1.0
      ],
      "min": [
        -0.9984246492385864,
        -0.9984246492385864,
        -1.0
      ],
      "type": "VEC3"
    },
    {
      "bufferView": 0,
      "componentType": 5125,
      "count": 216,
      "type": "SCALAR"
    },
    {
      "bufferView": 2,
      "byteOffset": 3456,
      "componentType": 5126,
      "count": 144,
      "max": [
        -0.26881399750709534,
        1.2744909524917603,
        -0.391525000333786
      ],
      "min": [
        -0.2890630066394806,
        1.2683769464492798,
        -0.5915250182151794
      ],
      "type": "VEC3"
    },
    {
      "bufferView": 2,
      "byteOffset": 5184,
      "componentType": 5126,
      "count": 144,
      "max": [
        0.9984246492385864,
        0.9984246492385864,
        1.0
      ],
      "min": [
        -0.9984246492385864,
        -0.9984246492385864,
        -1.0
      ],
      "type": "VEC3"
    },
    {
      "bufferView": 0,
      "byteOffset": 864,
      "componentType": 5125,
      "count": 276,
      "type": "SCALAR"
    },
    {
      "bufferView": 2,
      "byteOffset": 6912,
      "componentType": 5126,
      "count": 55433,
      "max": [
        -0.09407500177621841,
        1.2662450075149536,
        -0.40825098752975464
      ],
      "min": [
        -0.24279999732971191,
        1.2235560417175293,
        -0.5733569860458374
      ],
      "type": "VEC3"
    },
    {
      "bufferView": 2,
      "byteOffset": 672108,
      "componentType": 5126,
      "count": 55433,
      "max": [
        0.9998603463172913,
        0.9999979734420776,
        0.9999819993972778
      ],
      "min": [
        -0.9999316334724426,
        -0.9999980926513672,
        -0.9999003410339355
      ],
      "type": "VEC3"
    },
    {
      "bufferView": 1,
      "componentType": 5126,
      "count": 55433,
      "max": [
        0.9987559914588928,
        0.9979249835014343
      ],
      "min": [
        0.0010400000028312206,
        0.004435000009834766
      ],
      "type": "VEC2"
    },
    {
      "bufferView": 0,
      "byteOffset": 1968,
      "componentType": 5125,
      "count": 219612,
      "type": "SCALAR"
    }
  ],
  "asset": {
    "extras": {
      "author": "ArcheoBru (https://sketchfab.com/ArcheoBru)",
      "license": "CC-BY-4.0 (http://creativecommons.org/licenses/by/4.0/)",
      "source": "https://sketchfab.com/3d-models/terra-sigillata-dish-tour-taxis-brussels-7c23125728784bfcb6a2ca10c5a1eeda",
      "title": "Terra sigillata dish - Tour & Taxis, Brussels"
    },
    "generator": "Sketchfab-12.64.0",
    "version": "2.0"
  },
  "bufferViews": [
    {
      "buffer": 0,
      "byteLength": 880416,
      "name": "floatBufferViews",
      "target": 34963
    },
    {
      "buffer": 0,
      "byteLength": 443464,
      "byteOffset": 880416,
      "byteStride": 8,
      "name": "floatBufferViews",
      "target": 34962
    },
    {
      "buffer": 0,
      "byteLength": 1337304,
      "byteOffset": 1323880,
      "byteStride": 12,
      "name": "floatBufferViews",
      "target": 34962
    }
  ],
  "buffers": [
    {
      "byteLength": 2661184,
      "uri": "scene.bin"
    }
  ],
  "extensionsUsed": [
    "KHR_materials_unlit"
  ],
  "images": [
    {
      "uri": "textures/Model_0_Model_Sketch.dgn_Default__623_vis_baseColor.jpeg"
    }
  ],
  "materials": [
    {
      "doubleSided": true,
      "extensions": {
        "KHR_materials_unlit": {}
      },
      "name": "Default_Sketchfab_regle_20.-3_Model_Sketch.dgn_Default__661_vis",
      "pbrMetallicRoughness": {
        "baseColorFactor": [
          1.0,
          0.0,
          0.0,
          1.0
        ],
        "metallicFactor": 0.0
      }
    },
    {
      "doubleSided": true,
      "extensions": {
        "KHR_materials_unlit": {}
      },
      "name": "Default_Sketchfab_regle_20.-4_Model_Sketch.dgn_Default__660_vis",
      "pbrMetallicRoughness": {
        "metallicFactor": 0.0
      }
    },
    {
      "doubleSided": true,
      "extensions": {
        "KHR_materials_unlit": {}
      },
      "name": "Model_0_Model_Sketch.dgn_Default__623_vis",
      "pbrMetallicRoughness": {
        "baseColorTexture": {
          "index": 0
        },
        "metallicFactor": 0.0
      }
    }
  ],
  "meshes": [
    {
      "name": "Object_0",
      "primitives": [
        {
          "attributes": {
            "NORMAL": 1,
            "POSITION": 0
          },
          "indices": 2,
          "material": 0,
          "mode": 4
        }
      ]
    },
    {
      "name": "Object_1",
      "primitives": [
        {
          "attributes": {
            "NORMAL": 4,
            "POSITION": 3
          },
          "indices": 5,
          "material": 1,
          "mode": 4
        }
      ]
    },
    {
      "name": "Object_2",
      "primitives": [
        {
          "attributes": {
            "NORMAL": 7,
            "POSITION": 6,
            "TEXCOORD_0": 8
          },
          "indices": 9,
          "material": 2,
          "mode": 4
        }
      ]
    }
  ],
  "nodes": [
    {
      "children": [
        1
      ],
      "matrix": [
        0.0,
        1.0,
        2.220446049250313e-16,
        0.0,
        0.0,
        -2.220446049250313e-16,
        1.0,
        0.0,
        1.0,
        0.0,
        0.0,
        0.0,
        0.2999570369720459,
        -0.29995703697204534,
        -2.498054265975952,
        1.0
      ],
      "name": "Sketchfab_model"
    },
    {
      "children": [
        2,
        3,
        4
      ],
      "name": "Model_Sketch.obj.cleaner.materialmerger.gles"
    },
    {
      "mesh": 0,
      "name": "Object_2"
    },
    {
      "mesh": 1,
      "name": "Object_3"
    },
    {
      "mesh": 2,
      "name": "Object_4"
    }
  ],
  "samplers": [
    {
      "magFilter": 9729,
      "minFilter": 9987,
      "wrapS": 10497,
      "wrapT": 10497
    }
  ],
  "scene": 0,
  "scenes": [
    {
      "name": "Sketchfab_Scene",
      "nodes": [
        0
      ]
    }
  ],
  "textures": [
    {
      "sampler": 0,
      "source": 0
    }
  ]
}
