{
  "accessors": [
    {
      "bufferView": 2,
      "componentType": 5126,
      "count": 65532,
      "max": [
        1.3165279626846313,
        8.477845191955566,
        1.4709739685058594
      ],
      "min": [
        -1.8137190341949463,
        6.35612678527832,
        -1.233870029449463
      ],
      "type": "VEC3"
    },
    {
      "bufferView": 2,
      "byteOffset": 786384,
      "componentType": 5126,
      "count": 65532,
      "max": [
        0.9441583752632141,
        0.9999922513961792,
        0.9998806715011597
      ],
      "min": [
        -0.9962819814682007,
        -0.999983549118042,
        -0.9997960329055786
      ],
      "type": "VEC3"
    },
    {
      "bufferView": 1,
      "componentType": 5126,
      "count": 65532,
      "max": [
        0.9999060034751892,
        0.9711610078811646
      ],
      "min": [
        4.600000102072954e-05,
        0.07598999887704849
      ],
      "type": "VEC2"
    },
    {
      "bufferView": 0,
      "componentType": 5125,
      "count": 354117,
      "type": "SCALAR"
    },
    {
      "bufferView": 2,
      "byteOffset": 1572768,
      "componentType": 5126,
      "count": 65532,
      "max": [
        1.4229350090026855,
        8.477845191955566,
        1.4453719854354858
      ],
      "min": [
        -1.8267910480499268,
        6.3504438400268555,
        -1.2315620183944702
      ],
      "type": "VEC3"
    },
    {
      "bufferView": 2,
      "byteOffset": 2359152,
      "componentType": 5126,
      "count": 65532,
      "max": [
        0.9911900758743286,
        0.9999960660934448,
        0.9963591694831848
      ],
      "min": [
        -0.9999622106552124,
        -0.9999647736549377,
        -0.9988657236099243
      ],
      "type": "VEC3"
    },
    {
      "bufferView": 1,
      "byteOffset": 524256,
      "componentType": 5126,
      "count": 65532,
      "max": [
        0.9954450130462646,
        0.9736109972000122
      ],
      "min": [
        1.9999999494757503e-05,
        3.999999989900971e-06
      ],
      "type": "VEC2"
    },
    {
      "bufferView": 0,
      "byteOffset": 1416468,
      "componentType": 5125,
      "count": 340968,
      "type": "SCALAR"
    },
    {
      "bufferView": 2,
      "byteOffset": 3145536,
      "componentType": 5126,
      "count": 20334,
      "max": [
        1.4516069889068604,
        8.466082572937012,
        1.4693150520324707
      ],
      "min": [
        -1.8031049966812134,
        6.381214141845703,
        -1.2266240119934082
      ],
      "type": "VEC3"
    },
    {
      "bufferView": 2,
      "byteOffset": 3389544,
      "componentType": 5126,
      "count": 20334,
      "max": [
        0.9997614026069641,
        0.9998598098754883,
        0.9996897578239441
      ],
      "min": [
        -0.9276702404022217,
        -0.9998726844787598,
        -0.9982895851135254
      ],
      "type": "VEC3"
    },
    {
      "bufferView": 1,
      "byteOffset": 1048512,
      "componentType": 5126,
      "count": 20334,
      "max": [
        0.9991130232810974,
        0.9711610078811646
      ],
      "min": [
        0.00038400001358240843,
        0.014677999541163445
      ],
      "type": "VEC2"
    },
    {
      "bufferView": 0,
      "byteOffset": 2780340,
      "componentType": 5125,
      "count": 74013,
      "type": "SCALAR"
    }
  ],
  "asset": {
    "extras": {
      "author": "The Mel Fisher Maritime Museum (https://sketchfab.com/mfmaritimemuseum)",
      "license": "CC-BY-NC-ND-4.0 (http://creativecommons.org/licenses/by-nc-nd/4.0/)",
      "source": "https://sketchfab.com/3d-models/majolica-plate-19860080677-9475245ab95e4874adac77d47631e3b2",
      "title": "Majolica Plate 1986.008.0677"
    },
    "generator": "Sketchfab-12.65.0",
    "version": "2.0"
  },
  "bufferViews": [
    {
      "buffer": 0,
      "byteLength": 3076392,
      "name": "floatBufferViews",
      "target": 34963
    },
    {
      "buffer": 0,
      "byteLength": 1211184,
      "byteOffset": 3076392,
      "byteStride": 8,
      "name": "floatBufferViews",
      "target": 34962
    },
    {
      "buffer": 0,
      "byteLength": 3633552,
      "byteOffset": 4287576,
      "byteStride": 12,
      "name": "floatBufferViews",
      "target": 34962
    }
  ],
  "buffers": [
    {
      "byteLength": 7921128,
      "uri": "scene.bin"
    }
  ],
  "extensionsUsed": [
    "KHR_materials_unlit"
  ],
  "images": [
    {
      "uri": "textures/1622__Plato_86.08.677_baseColor.jpeg"
    }
  ],
  "materials": [
    {
      "doubleSided": true,
      "extensions": {
        "KHR_materials_unlit": {}
      },
      "name": "1622__Plato_86.08.677",
      "pbrMetallicRoughness": {
        "baseColorTexture": {
          "index": 0
        },
        "metallicFactor": 0.0
      }
    }
  ],
  "meshes": [
    {
      "name": "Object_0",
      "primitives": [
        {
          "attributes": {
            "NORMAL": 1,
            "POSITION": 0,
            "TEXCOORD_0": 2
          },
          "indices": 3,
          "material": 0,
          "mode": 4
        }
      ]
    },
    {
      "name": "Object_1",
      "primitives": [
        {
          "attributes": {
            "NORMAL": 5,
            "POSITION": 4,
            "TEXCOORD_0": 6
          },
          "indices": 7,
          "material": 0,
          "mode": 4
        }
      ]
    },
    {
      "name": "Object_2",
      "primitives": [
        {
          "attributes": {
            "NORMAL": 9,
            "POSITION": 8,
            "TEXCOORD_0": 10
          },
          "indices": 11,
          "material": 0,
          "mode": 4
        }
      ]
    }
  ],
  "nodes": [
    {
      "children": [
        1
      ],
      "matrix": [
        0.9819328784942627,
        -0.10656391829252247,
        0.15637119114398954,
        0.0,
        0.004866324830800295,
        -0.8118633627891539,
        -0.5838271975517275,
        0.0,
        0.18916694819927216,
        0.5740400552749636,
        -0.7966767549514769,
        0.0,
        -0.06189488247036934,
        6.049777030944825,
        -2.961782932281493,
        1.0
      ],
      "name": "Sketchfab_model"
    },
    {
      "children": [
        2,
        3,
        4
      ],
      "name": "1622  Plato 86.08.677.obj.cleaner.materialmerger.gles"
    },
    {
      "mesh": 0,
      "name": "Object_2"
    },
    {
      "mesh": 1,
      "name": "Object_3"
    },
    {
      "mesh": 2,
      "name": "Object_4"
    }
  ],
  "samplers": [
    {
      "magFilter": 9729,
      "minFilter": 9987,
      "wrapS": 10497,
      "wrapT": 10497
    }
  ],
  "scene": 0,
  "scenes": [
    {
      "name": "Sketchfab_Scene",
      "nodes": [
        0
      ]
    }
  ],
  "textures": [
    {
      "sampler": 0,
      "source": 0
    }
  ]
}
