{
  "accessors": [
    {
      "bufferView": 2,
      "componentType": 5126,
      "count": 266,
      "max": [
        4.772968292236328,
        10.655983924865723,
        0.49939048290252686
      ],
      "min": [
        -4.212653160095215,
        -7.938239574432373,
        -0.5642834305763245
      ],
      "type": "VEC3"
    },
    {
      "bufferView": 2,
      "byteOffset": 3192,
      "componentType": 5126,
      "count": 266,
      "max": [
        1.0,
        0.9968283772468567,
        1.0
      ],
      "min": [
        -1.0,
        -0.9968277215957642,
        -1.0
      ],
      "type": "VEC3"
    },
    {
      "bufferView": 3,
      "componentType": 5126,
      "count": 266,
      "max": [
        0.9868267178535461,
        0.4212569296360016,
        1.0,
        1.0
      ],
      "min": [
        -1.0,
        -1.0,
        -1.0,
        1.0
      ],
      "type": "VEC4"
    },
    {
      "bufferView": 1,
      "componentType": 5126,
      "count": 266,
      "max": [
        0.973638653755188,
        0.858293890953064
      ],
      "min": [
        0.005579077638685703,
        0.005579077638685703
      ],
      "type": "VEC2"
    },
    {
      "bufferView": 0,
      "componentType": 5125,
      "count": 1032,
      "type": "SCALAR"
    },
    {
      "bufferView": 2,
      "byteOffset": 6384,
      "componentType": 5126,
      "count": 531,
      "max": [
        4.772968292236328,
        10.446920394897461,
        -0.5642804503440857
      ],
      "min": [
        -3.9124860763549805,
        -7.720510005950928,
        -8.210427284240723
      ],
      "type": "VEC3"
    },
    {
      "bufferView": 2,
      "byteOffset": 12756,
      "componentType": 5126,
      "count": 531,
      "max": [
        1.0,
        1.0,
        1.0
      ],
      "min": [
        -1.0,
        -1.0,
        -1.0
      ],
      "type": "VEC3"
    },
    {
      "bufferView": 3,
      "byteOffset": 4256,
      "componentType": 5126,
      "count": 531,
      "max": [
        1.0,
        1.0,
        1.0,
        1.0
      ],
      "min": [
        -1.0,
        -1.0,
        -1.0,
        1.0
      ],
      "type": "VEC4"
    },
    {
      "bufferView": 1,
      "byteOffset": 2128,
      "componentType": 5126,
      "count": 531,
      "max": [
        0.9896910786628723,
        0.9944209456443787
      ],
      "min": [
        0.005579077638685703,
        0.005579077638685703
      ],
      "type": "VEC2"
    },
    {
      "bufferView": 0,
      "byteOffset": 4128,
      "componentType": 5125,
      "count": 1140,
      "type": "SCALAR"
    },
    {
      "bufferView": 2,
      "byteOffset": 19128,
      "componentType": 5126,
      "count": 1200,
      "max": [
        -3.595134973526001,
        8.42016887664795,
        -1.322384238243103
      ],
      "min": [
        -4.008464813232422,
        -4.83597993850708,
        -6.154515743255615
      ],
      "type": "VEC3"
    },
    {
      "bufferView": 2,
      "byteOffset": 33528,
      "componentType": 5126,
      "count": 1200,
      "max": [
        0.907480001449585,
        1.0,
        0.9510571956634521
      ],
      "min": [
        -1.0,
        -1.0,
        -0.9510574340820313
      ],
      "type": "VEC3"
    },
    {
      "bufferView": 3,
      "byteOffset": 12752,
      "componentType": 5126,
      "count": 1200,
      "max": [
        1.0,
        0.976360559463501,
        0.9999906420707703,
        1.0
      ],
      "min": [
        -1.0,
        -0.9763604998588562,
        -1.0,
        1.0
      ],
      "type": "VEC4"
    },
    {
      "bufferView": 1,
      "byteOffset": 6376,
      "componentType": 5126,
      "count": 1200,
      "max": [
        0.9012669920921326,
        0.9529673457145691
      ],
      "min": [
        0.005579077638685703,
        0.5621402859687805
      ],
      "type": "VEC2"
    },
    {
      "bufferView": 0,
      "byteOffset": 8688,
      "componentType": 5125,
      "count": 3120,
      "type": "SCALAR"
    }
  ],
  "asset": {
    "extras": {
      "author": "GameDev Nick (https://sketchfab.com/GameDevNick)",
      "license": "CC-BY-4.0 (http://creativecommons.org/licenses/by/4.0/)",
      "source": "https://sketchfab.com/3d-models/old-kitchen-cabinets-48b931482fe9489ab222ffbda838b753",
      "title": "Old Kitchen Cabinets"
    },
    "generator": "Sketchfab-12.68.0",
    "version": "2.0"
  },
  "bufferViews": [
    {
      "buffer": 0,
      "byteLength": 21168,
      "name": "floatBufferViews",
      "target": 34963
    },
    {
      "buffer": 0,
      "byteLength": 15976,
      "byteOffset": 21168,
      "byteStride": 8,
      "name": "floatBufferViews",
      "target": 34962
    },
    {
      "buffer": 0,
      "byteLength": 47928,
      "byteOffset": 37144,
      "byteStride": 12,
      "name": "floatBufferViews",
      "target": 34962
    },
    {
      "buffer": 0,
      "byteLength": 31952,
      "byteOffset": 85072,
      "byteStride": 16,
      "name": "floatBufferViews",
      "target": 34962
    }
  ],
  "buffers": [
    {
      "byteLength": 117024,
      "uri": "scene.bin"
    }
  ],
  "images": [
    {
      "uri": "textures/countertop_baseColor.png"
    },
    {
      "uri": "textures/countertop_metallicRoughness.png"
    },
    {
      "uri": "textures/countertop_normal.png"
    },
    {
      "uri": "textures/woodbase_baseColor.png"
    },
    {
      "uri": "textures/woodbase_metallicRoughness.png"
    },
    {
      "uri": "textures/woodbase_normal.png"
    },
    {
      "uri": "textures/Metalhandle_baseColor.png"
    },
    {
      "uri": "textures/Metalhandle_metallicRoughness.png"
    },
    {
      "uri": "textures/Metalhandle_normal.png"
    }
  ],
  "materials": [
    {
      "doubleSided": true,
      "name": "countertop",
      "normalTexture": {
        "index": 2
      },
      "pbrMetallicRoughness": {
        "baseColorTexture": {
          "index": 0
        },
        "metallicRoughnessTexture": {
          "index": 1
        }
      }
    },
    {
      "doubleSided": true,
      "name": "woodbase",
      "normalTexture": {
        "index": 5
      },
      "pbrMetallicRoughness": {
        "baseColorTexture": {
          "index": 3
        },
        "metallicRoughnessTexture": {
          "index": 4
        }
      }
    },
    {
      "doubleSided": true,
      "name": "Metalhandle",
      "normalTexture": {
        "index": 8
      },
      "pbrMetallicRoughness": {
        "baseColorTexture": {
          "index": 6
        },
        "metallicRoughnessTexture": {
          "index": 7
        }
      }
    }
  ],
  "meshes": [
    {
      "name": "Counter_low_countertop_0",
      "primitives": [
        {
          "attributes": {
            "NORMAL": 1,
            "POSITION": 0,
            "TANGENT": 2,
            "TEXCOORD_0": 3
          },
          "indices": 4,
          "material": 0,
          "mode": 4
        }
      ]
    },
    {
      "name": "Counter_low_woodbase_0",
      "primitives": [
        {
          "attributes": {
            "NORMAL": 6,
            "POSITION": 5,
            "TANGENT": 7,
            "TEXCOORD_0": 8
          },
          "indices": 9,
          "material": 1,
          "mode": 4
        }
      ]
    },
    {
      "name": "Counter_low_Metalhandle_0",
      "primitives": [
        {
          "attributes": {
            "NORMAL": 11,
            "POSITION": 10,
            "TANGENT": 12,
            "TEXCOORD_0": 13
          },
          "indices": 14,
          "material": 2,
          "mode": 4
        }
      ]
    }
  ],
  "nodes": [
    {
      "children": [
        1
      ],
      "matrix": [
        1.0,
        0.0,
        0.0,
        0.0,
        0.0,
        2.220446049250313e-16,
        -1.0,
        0.0,
        0.0,
        1.0,
        2.220446049250313e-16,
        0.0,
        0.0,
        0.0,
        0.0,
        1.0
      ],
      "name": "Sketchfab_model"
    },
    {
      "children": [
        2
      ],
      "matrix": [
        1.0,
        0.0,
        0.0,
        0.0,
        0.0,
        0.0,
        1.0,
        0.0,
        0.0,
        -1.0,
        0.0,
        0.0,
        0.0,
        0.0,
        0.0,
        1.0
      ],
      "name": "48c8f064a7884f62a515d461944b928d.fbx"
    },
    {
      "children": [
        3
      ],
      "name": "RootNode"
    },
    {
      "children": [
        4,
        5,
        6
      ],
      "matrix": [
        100.0,
        0.0,
        0.0,
        0.0,
        0.0,
        -1.629206793918314e-05,
        -99.99999999999868,
        0.0,
        0.0,
        99.99999999999868,
        -1.629206793918314e-05,
        0.0,
        0.0,
        0.0,
        0.0,
        1.0
      ],
      "name": "Counter_low"
    },
    {
      "mesh": 0,
      "name": "Counter_low_countertop_0"
    },
    {
      "mesh": 1,
      "name": "Counter_low_woodbase_0"
    },
    {
      "mesh": 2,
      "name": "Counter_low_Metalhandle_0"
    }
  ],
  "samplers": [
    {
      "magFilter": 9729,
      "minFilter": 9987,
      "wrapS": 10497,
      "wrapT": 10497
    }
  ],
  "scene": 0,
  "scenes": [
    {
      "name": "Sketchfab_Scene",
      "nodes": [
        0
      ]
    }
  ],
  "textures": [
    {
      "sampler": 0,
      "source": 0
    },
    {
      "sampler": 0,
      "source": 1
    },
    {
      "sampler": 0,
      "source": 2
    },
    {
      "sampler": 0,
      "source": 3
    },
    {
      "sampler": 0,
      "source": 4
    },
    {
      "sampler": 0,
      "source": 5
    },
    {
      "sampler": 0,
      "source": 6
    },
    {
      "sampler": 0,
      "source": 7
    },
    {
      "sampler": 0,
      "source": 8
    }
  ]
}
